<mxfile host="app.diagrams.net" modified="2023-05-14T10:28:32.026Z" agent="Mozilla/5.0 (Windows NT 10.0; Win64; x64) AppleWebKit/537.36 (KHTML, like Gecko) Chrome/113.0.0.0 Safari/537.36" version="21.3.0" etag="hVXo0nEDP8NyQGEzBxUs" type="github">
  <diagram name="Страница 1" id="PRPTIy33Pm7IOFuSkBhb">
    <mxGraphModel>
      <root>
        <mxCell id="0" />
        <mxCell id="1" parent="0" />
      </root>
    </mxGraphModel>
  </diagram>
</mxfile>
